<svg width="29" height="32" viewBox="0 0 29 32" fill="none" xmlns="http://www.w3.org/2000/svg">
<path d="M26.8273 11.1385C25.7576 9.9546 24.1451 9.26668 21.9099 9.02671V7.81085C21.9099 5.6191 20.984 3.50734 19.3555 2.03551C17.7111 0.531686 15.5717 -0.172233 13.3525 0.0357427C9.53689 0.4037 6.32786 4.09928 6.32786 8.09882V9.02671C4.09271 9.26668 2.48021 9.9546 1.41053 11.1385C-0.138107 12.8662 -0.0902109 15.1699 0.0854078 16.7698L1.20298 25.6807C1.53825 28.8004 2.79952 32 9.66461 32H18.5732C25.4383 32 26.6995 28.8004 27.0348 25.6967L28.1524 16.7538C28.328 15.1699 28.3599 12.8662 26.8273 11.1385ZM13.576 2.25949C15.1726 2.1155 16.6893 2.61145 17.8707 3.68332C19.0362 4.7392 19.6908 6.24303 19.6908 7.81085V8.93072H8.54704V8.09882C8.54704 5.25114 10.8939 2.51546 13.576 2.25949ZM8.40335 17.8416H8.38738C7.50929 17.8416 6.79085 17.1217 6.79085 16.2418C6.79085 15.3619 7.50929 14.642 8.38738 14.642C9.28144 14.642 9.99988 15.3619 9.99988 16.2418C9.99988 17.1217 9.28144 17.8416 8.40335 17.8416ZM19.579 17.8416H19.563C18.6849 17.8416 17.9665 17.1217 17.9665 16.2418C17.9665 15.3619 18.6849 14.642 19.563 14.642C20.4571 14.642 21.1755 15.3619 21.1755 16.2418C21.1755 17.1217 20.4571 17.8416 19.579 17.8416Z" fill="#FFA323"/>
</svg>
