<svg width="189" height="189" viewBox="0 0 189 189" fill="none" xmlns="http://www.w3.org/2000/svg">
<g clip-path="url(#clip0_12_23)">
<mask id="mask0_12_23" style="mask-type:luminance" maskUnits="userSpaceOnUse" x="4" y="7" width="180" height="174">
<path d="M4.33463 75.6601L122.757 7.28906L183.205 111.988L64.7829 180.359L4.33463 75.6601Z" fill="white"/>
</mask>
<g mask="url(#mask0_12_23)">
<path d="M44.0543 98.4833C45.8352 97.4924 46.6039 96.4239 46.5288 94.8362C46.4583 93.3264 45.4624 92.5099 44.2689 91.9163C43.6405 91.6023 42.9548 91.4213 42.2529 91.386C38.5578 91.2486 34.8575 91.0807 31.1635 91.1474C29.9755 91.2303 28.8359 91.6529 27.881 92.3648C27.4375 92.693 27.0778 93.1215 26.832 93.6149C26.5854 94.1087 26.4599 94.6533 26.4637 95.2054C26.4683 95.7569 26.6038 96.2993 26.8577 96.789C27.1123 97.2783 27.4782 97.701 27.9275 98.0215C29.0606 98.8324 30.3944 99.3167 31.7845 99.421C35.1691 99.4944 38.5642 99.2481 41.9497 99.0371C42.6713 98.9403 43.3785 98.7542 44.0543 98.4833Z" fill="#FFA323"/>
<path d="M128.438 54.6588C128.815 54.0209 129.825 52.8466 130.23 51.4892C130.866 49.2751 131.293 47.0065 131.506 44.7131C131.643 43.5298 131.422 42.3329 130.872 41.2767C129.765 39.4081 127.001 39.1951 125.384 41.0225C124.018 42.4962 122.956 44.2254 122.26 46.1108C121.565 47.9962 121.249 50.0007 121.33 52.0087C121.502 55.4278 124.815 56.8643 128.438 54.6588Z" fill="#FFA323"/>
<path d="M34.7745 58.4448C32.0997 59.9674 31.6471 62.8871 33.3832 64.6781C33.9216 65.2726 34.5985 65.7243 35.3553 65.9906C38.2367 66.8128 41.1337 67.6245 44.0738 68.1816C45.5014 68.4511 47.0594 68.3688 48.2258 67.0448C49.5836 65.5034 49.5961 63.6474 48.0802 62.2843C47.649 61.8629 47.1394 61.5293 46.5812 61.3011C43.7514 60.3143 40.9265 59.2861 38.0378 58.5049C36.8498 58.1837 35.5046 58.4468 34.7745 58.4448Z" fill="#FFA323"/>
<path d="M87.7995 40.9388C88.841 42.3907 90.1431 43.159 91.9192 43.0274C93.5798 42.9035 94.4559 41.8244 94.8426 40.4097C95.7303 37.4195 95.8692 34.2569 95.2471 31.2005C94.7734 29.0595 93.3618 27.8565 91.5803 27.8001C89.6863 27.7415 88.2397 28.7386 87.7338 30.9221C86.9636 34.2562 86.6564 37.6397 87.7995 40.9388Z" fill="#FFA323"/>
<path d="M33.8825 125.525C33.1667 124.194 32.6504 122.765 32.3524 121.283C32.0081 119.289 32.4547 117.541 33.6062 116.375C34.7696 115.194 36.5334 114.726 38.5654 115.05C40.0986 115.293 41.6553 115.627 43.1582 115.95C43.7757 116.081 44.3964 116.217 45.011 116.343L53.2153 118.033C59.9098 119.411 66.6067 120.789 73.308 122.163C73.779 122.245 74.2547 122.297 74.732 122.315C74.928 122.327 75.1279 122.337 75.3347 122.357C75.4728 122.368 75.6114 122.347 75.7399 122.296C75.8686 122.245 75.9842 122.166 76.0779 122.064C76.1727 121.962 76.2415 121.839 76.2809 121.705C76.3195 121.572 76.3268 121.431 76.3024 121.294C75.7299 118.024 75.1395 114.782 74.5553 111.551C73.2562 104.372 71.9142 96.942 70.7898 89.653C69.2296 79.5079 68.0468 69.4754 66.9923 60.1477C66.8003 57.8572 67.0044 55.5509 67.5965 53.33C68.0976 51.2787 69.4243 50.3806 71.8999 50.4347C73.9117 50.4706 75.4475 51.6589 77.0713 52.9151L77.2218 53.0315C78.836 54.2721 80.4451 55.5203 82.0502 56.7757C86.9361 60.5702 91.9919 64.503 97.088 68.204C104.793 73.803 112.791 79.2761 120.325 84.4017C122.883 86.1421 125.49 87.728 128.25 89.408C129.505 90.1739 130.785 90.9524 132.082 91.7635C132.187 91.8301 132.305 91.874 132.428 91.8927C132.551 91.9112 132.676 91.9045 132.796 91.8724C132.916 91.8404 133.028 91.7837 133.126 91.7066C133.223 91.6289 133.303 91.5323 133.361 91.4223L134.766 88.7652C135.662 87.0849 136.478 85.5559 137.283 84.0186C138.418 81.8597 139.551 79.6986 140.684 77.5354C142.902 73.2958 145.128 69.0628 147.362 64.8363C147.816 63.807 148.55 62.9249 149.479 62.2913C150.208 61.9009 151.054 61.7887 151.859 61.9757C154.13 62.3494 155.465 63.661 155.939 65.9903C156.248 67.4899 156.408 69.0694 156.567 70.5996L156.57 70.6656C156.702 71.9064 156.797 73.1809 156.896 74.4123C157.081 76.7356 157.267 79.1449 157.656 81.4953C157.897 82.9855 158.137 84.4788 158.376 85.975C159.909 95.5416 161.497 105.432 164.294 114.944C165.245 118.17 164.494 120.644 161.998 122.509C161.313 123.023 160.63 123.543 159.954 124.059C157.21 126.246 154.318 128.24 151.296 130.025C144.341 133.923 137.174 137.719 130.243 141.393C127.192 143.008 124.147 144.628 121.106 146.252C116.116 148.923 111.13 151.601 106.15 154.287L100.425 157.362C99.9654 157.614 99.5019 157.86 99.0361 158.116C98.5342 158.391 98.0235 158.666 97.5135 158.939C95.7448 159.892 93.9653 160.827 92.1911 161.769C87.8309 164.077 83.3317 166.458 78.9719 168.941C76.96 170.088 75.1399 170.205 73.2418 169.317C71.8951 168.639 70.6605 167.758 69.5808 166.703L67.9495 165.179C61.2928 158.968 54.4114 152.538 48.4531 145.449C47.8734 144.76 47.2923 144.079 46.7135 143.389C42.0366 137.864 37.1865 132.14 33.8825 125.525ZM76.1321 158.504C76.2612 158.613 76.4185 158.683 76.5857 158.706C76.753 158.73 76.9241 158.704 77.0774 158.635C77.744 158.341 78.4365 158.046 79.1349 157.748C80.7342 157.068 82.3939 156.361 83.9993 155.524C86.6329 154.15 89.2885 152.721 91.8494 151.33C95.271 149.49 98.8054 147.578 102.325 145.797C106.428 143.728 110.661 141.723 114.751 139.786C117.102 138.673 119.454 137.559 121.792 136.424C125.211 134.771 128.059 133.383 130.962 131.826C138.116 127.995 145.361 124.055 152.368 120.248L155.839 118.362L155.918 118.316C156.232 118.126 156.527 117.906 156.799 117.661C156.892 117.579 156.984 117.498 157.078 117.431C157.215 117.326 157.318 117.183 157.376 117.02C157.434 116.857 157.443 116.681 157.404 116.512L149.44 81.7679C149.4 81.588 149.306 81.4243 149.17 81.2994C149.034 81.1746 148.863 81.0949 148.681 81.0704C148.498 81.0457 148.312 81.078 148.148 81.163C147.984 81.2474 147.85 81.3804 147.764 81.5437L147.009 82.9484C146.508 83.878 146.045 84.7297 145.6 85.586C144.965 86.8021 144.328 88.0149 143.689 89.2237C142.111 92.2309 140.471 95.3367 138.961 98.4503C137.995 100.443 136.844 101.658 135.549 102.057C134.284 102.448 132.787 102.133 130.982 101.094L129.364 100.169C126.309 98.4228 123.147 96.6132 120.225 94.6024C110.535 87.9134 100.725 81.0431 91.2401 74.3961C87.4974 71.773 83.7513 69.1519 80.0016 66.5331C79.6847 66.3093 79.3675 66.098 78.9207 65.8063L78.0512 65.2289C77.9082 65.1302 77.7389 65.0764 77.5653 65.0738C77.3911 65.0715 77.2208 65.1204 77.0747 65.2148C76.9268 65.305 76.8079 65.4359 76.7326 65.5917C76.6572 65.7477 76.6284 65.9219 76.6496 66.0936C76.8715 67.9016 77.061 69.6653 77.2461 71.3969C77.6509 75.1614 78.0312 78.7145 78.6578 82.273C80.1013 90.4295 81.6758 98.692 83.1955 106.692C84.0653 111.273 84.9303 115.86 85.7908 120.45C86.2508 122.779 86.5768 125.132 86.7675 127.497C86.8691 128.342 86.7708 129.198 86.4798 129.998C86.1888 130.797 85.714 131.517 85.093 132.099C83.8484 133.187 82.0848 133.557 80.1229 133.151C77.1415 132.533 74.16 131.893 71.1825 131.259C68.5687 130.7 65.9576 130.144 63.3478 129.592C60.032 128.903 56.7116 128.221 53.388 127.549L48.9353 126.645C48.7706 126.612 48.6009 126.624 48.4438 126.68C48.2856 126.737 48.1466 126.836 48.041 126.966L47.6217 127.494C47.4936 127.655 47.4224 127.855 47.4229 128.061C47.4233 128.268 47.4934 128.468 47.6223 128.629C55.1369 137.939 64.4001 148.774 76.1321 158.504Z" fill="#FFA323"/>
</g>
</g>
<defs>
<clipPath id="clip0_12_23">
<rect width="137.701" height="137.701" fill="white" transform="matrix(-0.866025 0.5 0.5 0.866025 119.253 0)"/>
</clipPath>
</defs>
</svg>
