<svg width="144" height="31" viewBox="0 0 144 31" fill="none" xmlns="http://www.w3.org/2000/svg">
<path d="M0.88 30.04C1.68 26.44 2.44 22.92 3.16 19.48C3.45333 18.04 3.76 16.52 4.08 14.92C4.4 13.32 4.70667 11.7467 5 10.2C5.29333 8.65333 5.57333 7.16 5.84 5.72C6.10667 4.28 6.33333 2.96 6.52 1.76C7.29333 1.52 8.05333 1.32 8.8 1.16C9.54667 0.973332 10.3067 0.813332 11.08 0.679998C11.88 0.546665 12.6267 0.479999 13.32 0.479999C14.52 0.479999 15.52 0.679998 16.32 1.08C17.1467 1.48 17.8133 2.02667 18.32 2.72C18.8267 3.38667 19.1867 4.17333 19.4 5.08C19.6133 5.98667 19.72 6.96 19.72 8C19.72 9.49333 19.44 10.9333 18.88 12.32C18.3467 13.7067 17.6133 14.9467 16.68 16.04C15.7733 17.1067 14.72 17.96 13.52 18.6C12.3467 19.24 11.12 19.56 9.84 19.56H9.4C9.18667 20.4667 8.98667 21.4533 8.8 22.52C8.61333 23.5867 8.45333 24.5733 8.32 25.48C8.13333 26.5467 7.96 27.6133 7.8 28.68L0.88 30.04ZM12.04 5.32C11.7467 7.08 11.4533 8.74667 11.16 10.32C10.8667 11.8933 10.5467 13.5733 10.2 15.36C10.6267 15.2533 11.0667 15.0133 11.52 14.64C12 14.24 12.44 13.7333 12.84 13.12C13.24 12.48 13.56 11.7467 13.8 10.92C14.04 10.0933 14.16 9.22667 14.16 8.32C14.16 7.33333 13.9333 6.58666 13.48 6.08C13.0533 5.57333 12.5733 5.32 12.04 5.32ZM22.9563 29.2C22.7163 29.2 22.2363 29.24 21.5163 29.32C20.8229 29.3733 20.1029 29.4533 19.3563 29.56C18.6096 29.64 17.9296 29.72 17.3163 29.8C16.7296 29.88 16.4096 29.9333 16.3563 29.96C16.6229 28.8133 16.8896 27.5467 17.1563 26.16C17.4496 24.7467 17.7429 23.28 18.0363 21.76C18.3296 20.2133 18.6096 18.6533 18.8763 17.08C19.1429 15.5067 19.3963 13.9867 19.6363 12.52C20.1963 9.10667 20.7563 5.6 21.3163 2L27.5563 0.999999C26.9429 4.57333 26.3429 8.08 25.7563 11.52C25.5163 12.9867 25.2629 14.5067 24.9963 16.08C24.7563 17.6533 24.5029 19.2133 24.2363 20.76C23.9963 22.3067 23.7696 23.8133 23.5563 25.28C23.3429 26.72 23.1429 28.0267 22.9563 29.2ZM41.4822 28.4C41.2422 28.4 40.7355 28.4133 39.9622 28.44C39.1889 28.4667 38.2689 28.5067 37.2022 28.56C36.1622 28.6133 35.0289 28.68 33.8022 28.76C32.5755 28.84 31.3755 28.9333 30.2022 29.04C29.0289 29.12 27.9355 29.2133 26.9222 29.32C25.9355 29.4267 25.1489 29.5333 24.5622 29.64L24.6022 23.8L35.9622 8.32C35.5089 8.32 34.8689 8.37333 34.0422 8.48C33.2155 8.56 32.3755 8.65333 31.5222 8.76C30.6955 8.86667 29.9755 8.97333 29.3622 9.08L28.4022 9.16L29.1622 2.88L45.5222 1.72L44.4822 7.24L33.5622 22.76C34.0955 22.76 34.8022 22.7333 35.6822 22.68C36.5889 22.6267 37.5222 22.5733 38.4822 22.52C39.4422 22.4667 40.4822 22.4 41.6022 22.32L41.4822 28.4ZM58.7088 28.4C58.4688 28.4 57.9621 28.4133 57.1888 28.44C56.4154 28.4667 55.4954 28.5067 54.4288 28.56C53.3888 28.6133 52.2554 28.68 51.0288 28.76C49.8021 28.84 48.6021 28.9333 47.4288 29.04C46.2554 29.12 45.1621 29.2133 44.1488 29.32C43.1621 29.4267 42.3754 29.5333 41.7888 29.64L41.8288 23.8L53.1888 8.32C52.7354 8.32 52.0954 8.37333 51.2688 8.48C50.4421 8.56 49.6021 8.65333 48.7488 8.76C47.9221 8.86667 47.2021 8.97333 46.5888 9.08L45.6288 9.16L46.3888 2.88L62.7488 1.72L61.7088 7.24L50.7888 22.76C51.3221 22.76 52.0288 22.7333 52.9088 22.68C53.8154 22.6267 54.7488 22.5733 55.7088 22.52C56.6688 22.4667 57.7088 22.4 58.8288 22.32L58.7088 28.4ZM73.4153 29.2C72.7486 29.3067 72.0153 29.4267 71.2153 29.56C70.4153 29.6933 69.6953 29.8133 69.0553 29.92C69.162 29.04 69.2686 28.1733 69.3753 27.32C69.4553 26.5733 69.522 25.8267 69.5753 25.08C69.6553 24.3333 69.722 23.6933 69.7753 23.16H66.2953L64.6953 28.92C64.1086 29 63.4153 29.0933 62.6153 29.2C61.8153 29.28 61.0686 29.36 60.3753 29.44C59.522 29.5467 58.682 29.6533 57.8553 29.76C58.922 26.2133 59.9753 22.72 61.0153 19.28C61.442 17.84 61.882 16.3333 62.3353 14.76C62.8153 13.1867 63.282 11.6267 63.7353 10.08C64.2153 8.50667 64.6686 7 65.0953 5.56C65.522 4.12 65.8953 2.8 66.2153 1.6C68.0286 1.46667 69.8686 1.30666 71.7353 1.12C73.6286 0.933332 75.4686 0.679998 77.2553 0.359998C77.1753 1.21333 77.082 2.28 76.9753 3.56C76.8953 4.81333 76.8153 6.18667 76.7353 7.68C76.6553 9.17333 76.5753 10.7333 76.4953 12.36C76.4153 13.9867 76.3353 15.5867 76.2553 17.16C76.122 20.84 75.9753 24.7467 75.8153 28.88C75.0153 29.0133 74.2153 29.12 73.4153 29.2ZM67.2553 19.16C67.362 19.16 67.5486 19.16 67.8153 19.16C68.1086 19.1333 68.402 19.12 68.6953 19.12C69.0153 19.0933 69.3086 19.08 69.5753 19.08C69.842 19.0533 70.0286 19.0267 70.1353 19C70.1353 18.84 70.1486 18.5733 70.1753 18.2C70.2286 17.8 70.2686 17.36 70.2953 16.88C70.3486 16.3733 70.402 15.8267 70.4553 15.24C70.5086 14.6533 70.562 14.08 70.6153 13.52C70.722 12.16 70.8553 10.6933 71.0153 9.12L71.2553 5.64L70.6553 5.68L69.7353 9.12L67.2553 19.16Z" fill="white"/>
<path d="M87.04 28.72C86.2133 28.72 85.3333 28.7467 84.4 28.8C83.4933 28.8533 82.5733 28.9333 81.64 29.04C80.7067 29.1467 79.7867 29.2933 78.88 29.48C78 29.64 77.2 29.84 76.48 30.08C76.64 28.88 76.8267 27.5467 77.04 26.08C77.2533 24.6133 77.4933 23.0933 77.76 21.52C78.0533 19.9467 78.3333 18.36 78.6 16.76C78.8933 15.16 79.1867 13.6267 79.48 12.16C80.1467 8.66667 80.8533 5.10667 81.6 1.48L88.6 0.559998C87.88 3.65333 87.1867 6.66667 86.52 9.6C86.2267 10.8533 85.9333 12.16 85.64 13.52C85.3467 14.8533 85.0667 16.16 84.8 17.44C84.5333 18.72 84.2933 19.96 84.08 21.16C83.8667 22.36 83.6933 23.4267 83.56 24.36C84.2267 24.3067 84.9333 24.28 85.68 24.28C86.4533 24.2533 87.1333 24.24 87.72 24.24C87.7467 24.7467 87.7867 25.2533 87.84 25.76C87.8933 26.24 87.9467 26.68 88 27.08C88.08 27.48 88.1333 27.84 88.16 28.16C88.2133 28.4533 88.2533 28.6533 88.28 28.76C88.0667 28.76 87.8533 28.76 87.64 28.76C87.4533 28.7333 87.2533 28.72 87.04 28.72ZM102.79 29.2C102.124 29.3067 101.39 29.4267 100.59 29.56C99.7903 29.6933 99.0703 29.8133 98.4303 29.92C98.537 29.04 98.6436 28.1733 98.7503 27.32C98.8303 26.5733 98.897 25.8267 98.9503 25.08C99.0303 24.3333 99.097 23.6933 99.1503 23.16H95.6703L94.0703 28.92C93.4836 29 92.7903 29.0933 91.9903 29.2C91.1903 29.28 90.4436 29.36 89.7503 29.44C88.897 29.5467 88.057 29.6533 87.2303 29.76C88.297 26.2133 89.3503 22.72 90.3903 19.28C90.817 17.84 91.257 16.3333 91.7103 14.76C92.1903 13.1867 92.657 11.6267 93.1103 10.08C93.5903 8.50667 94.0436 7 94.4703 5.56C94.897 4.12 95.2703 2.8 95.5903 1.6C97.4036 1.46667 99.2436 1.30666 101.11 1.12C103.004 0.933332 104.844 0.679998 106.63 0.359998C106.55 1.21333 106.457 2.28 106.35 3.56C106.27 4.81333 106.19 6.18667 106.11 7.68C106.03 9.17333 105.95 10.7333 105.87 12.36C105.79 13.9867 105.71 15.5867 105.63 17.16C105.497 20.84 105.35 24.7467 105.19 28.88C104.39 29.0133 103.59 29.12 102.79 29.2ZM96.6303 19.16C96.737 19.16 96.9236 19.16 97.1903 19.16C97.4836 19.1333 97.777 19.12 98.0703 19.12C98.3903 19.0933 98.6836 19.08 98.9503 19.08C99.217 19.0533 99.4036 19.0267 99.5103 19C99.5103 18.84 99.5236 18.5733 99.5503 18.2C99.6036 17.8 99.6436 17.36 99.6703 16.88C99.7236 16.3733 99.777 15.8267 99.8303 15.24C99.8836 14.6533 99.937 14.08 99.9903 13.52C100.097 12.16 100.23 10.6933 100.39 9.12L100.63 5.64L100.03 5.68L99.1103 9.12L96.6303 19.16ZM105.615 30.2C106.362 26.44 107.082 22.7733 107.775 19.2C108.042 17.7067 108.322 16.1467 108.615 14.52C108.935 12.8667 109.228 11.2533 109.495 9.68C109.762 8.08 110.002 6.54667 110.215 5.08C110.455 3.58667 110.642 2.22667 110.775 0.999999C111.602 0.946665 112.402 0.893331 113.175 0.839999C113.868 0.786666 114.575 0.746666 115.295 0.719998C116.015 0.666665 116.655 0.613332 117.215 0.559998C117.562 2.61333 117.868 4.57333 118.135 6.44C118.268 7.24 118.402 8.08 118.535 8.96C118.695 9.81333 118.842 10.64 118.975 11.44C119.108 12.24 119.242 13.0133 119.375 13.76C119.508 14.48 119.642 15.12 119.775 15.68C119.882 15.12 120.002 14.48 120.135 13.76C120.268 13.0133 120.415 12.24 120.575 11.44C120.735 10.6133 120.895 9.77333 121.055 8.92C121.242 8.06667 121.415 7.24 121.575 6.44C121.975 4.57333 122.388 2.62667 122.815 0.599999L127.695 -2.38419e-06C126.788 4 125.988 7.78667 125.295 11.36C124.975 12.9067 124.655 14.4667 124.335 16.04C124.042 17.6133 123.762 19.1333 123.495 20.6C123.228 22.0667 123.002 23.4267 122.815 24.68C122.628 25.9067 122.482 26.9467 122.375 27.8C122.295 27.8 121.975 27.8667 121.415 28C120.882 28.1067 120.255 28.24 119.535 28.4C118.842 28.56 118.135 28.7333 117.415 28.92C116.722 29.08 116.202 29.2133 115.855 29.32C115.668 27.16 115.468 25.1067 115.255 23.16C115.175 22.3333 115.082 21.48 114.975 20.6C114.868 19.72 114.762 18.88 114.655 18.08C114.575 17.28 114.482 16.5333 114.375 15.84C114.295 15.12 114.215 14.52 114.135 14.04C114.055 14.52 113.948 15.1067 113.815 15.8C113.682 16.4933 113.548 17.24 113.415 18.04C113.282 18.8133 113.148 19.6267 113.015 20.48C112.882 21.3067 112.735 22.12 112.575 22.92C112.228 24.8133 111.855 26.7867 111.455 28.84L105.615 30.2ZM143.86 9.56C143.86 10.9467 143.66 12.4267 143.26 14C142.86 15.5467 142.3 17.0933 141.58 18.64C140.86 20.16 139.967 21.6267 138.9 23.04C137.86 24.4267 136.673 25.6533 135.34 26.72C134.007 27.76 132.54 28.6 130.94 29.24C129.367 29.88 127.687 30.2 125.9 30.2C125.527 30.2 125.153 30.1733 124.78 30.12C124.407 30.0933 124.033 30.0533 123.66 30C124.38 26.32 125.087 22.7333 125.78 19.24C126.047 17.7733 126.327 16.2533 126.62 14.68C126.913 13.08 127.193 11.5067 127.46 9.96C127.727 8.41333 127.98 6.93333 128.22 5.52C128.487 4.10667 128.7 2.82667 128.86 1.68C130.007 1.46667 131.167 1.26667 132.34 1.08C133.513 0.893332 134.713 0.799999 135.94 0.799999C137.38 0.799999 138.593 1.02667 139.58 1.48C140.593 1.93333 141.407 2.56 142.02 3.36C142.66 4.16 143.127 5.09333 143.42 6.16C143.713 7.22667 143.86 8.36 143.86 9.56ZM134.42 6.44C134.127 8.01333 133.82 9.52 133.5 10.96C133.18 12.4 132.86 13.8533 132.54 15.32C132.22 16.7867 131.9 18.32 131.58 19.92C131.26 21.52 130.953 23.2667 130.66 25.16C131.3 24.7333 131.913 24.16 132.5 23.44C133.113 22.6933 133.687 21.84 134.22 20.88C134.753 19.92 135.233 18.9067 135.66 17.84C136.113 16.7733 136.5 15.7333 136.82 14.72C137.14 13.7067 137.38 12.76 137.54 11.88C137.727 11 137.82 10.24 137.82 9.6C137.82 8.61333 137.54 7.84 136.98 7.28C136.447 6.72 135.593 6.44 134.42 6.44Z" fill="#FFA323"/>
</svg>
