<svg width="36" height="32" viewBox="0 0 36 32" fill="none" xmlns="http://www.w3.org/2000/svg">
<path d="M34.7252 2.15713C34.7252 2.15713 33.2162 1.64102 31.9794 1.32631C28.5817 0.461126 21.4404 0 17.773 0C14.1057 0 6.96441 0.461126 3.56671 1.32631C2.32983 1.64109 0.820856 2.15713 0.820856 2.15713C0.297247 2.31542 -0.043078 2.81834 0.00440919 3.36333L0.595014 10.1556C0.647569 10.7524 1.14744 11.2109 1.74616 11.2109H7.63257C8.2231 11.2109 8.71859 10.7655 8.78177 10.178L9.07891 7.40287C9.13772 6.85232 9.57878 6.42133 10.1306 6.37433C10.1306 6.37433 14.8851 5.94514 17.773 5.94514C20.6602 5.94514 25.4154 6.37433 25.4154 6.37433C25.9673 6.42126 26.4083 6.85232 26.4671 7.40287L26.7649 10.178C26.8274 10.7655 27.323 11.2109 27.9136 11.2109H33.7993C34.3986 11.2109 34.8984 10.7524 34.951 10.1556L35.5416 3.36333C35.5891 2.81834 35.2489 2.31542 34.7252 2.15713Z" fill="#FFA323"/>
<path d="M24.82 7.65625H20.9762V10.8593H14.5699V7.65625H10.7262C10.7262 7.65625 10.0855 15.9844 2.39807 22.0703C2.39807 24.3125 2.39807 31.0922 2.39807 31.0922C2.39807 31.5933 2.8047 32 3.30581 32H32.2403C32.7414 32 33.1481 31.5933 33.1481 31.0922C33.1481 31.0922 33.1481 24.3125 33.1481 22.0703C25.4605 15.9844 24.82 7.65625 24.82 7.65625ZM23.5193 25.3453V27.9423H20.923V25.3453H23.5193ZM23.5193 21.2388V23.8357H20.923V21.2388H23.5193ZM20.923 19.7286V17.1324H23.5193V19.7286H20.923ZM19.0712 25.3453V27.9423H16.4749V25.3453H19.0712ZM19.0712 21.2388V23.8357H16.4749V21.2388H19.0712ZM19.0712 17.1324V19.7286H16.4749V17.1324H19.0712ZM14.6231 25.3453V27.9423H12.0268V25.3453H14.6231ZM14.6231 21.2388V23.8357H12.0268V21.2388H14.6231ZM14.6231 17.1324V19.7286H12.0268V17.1324H14.6231Z" fill="#FFA323"/>
</svg>
